<svg width="61" height="31" viewBox="0 0 61 31" fill="none" xmlns="http://www.w3.org/2000/svg">
<path d="M61 0H0V31H61V0Z" fill="black"/>
<path d="M5.77335 12.9657V3.57864H7.85794L12.1252 8.82578V3.57864H14.5654V12.9657H12.4931L8.22581 7.73062V12.9657H5.77335ZM14.9744 12.9657L18.8493 3.57864H21.2772L25.1399 12.9657H22.4667L21.6941 10.8717H18.4446L17.6476 12.9657H14.9744ZM19.2049 8.92206L20.9094 8.91002L20.0633 6.65953L19.2049 8.92206ZM28.5286 12.9657V5.91338H25.5488V3.57864H33.9608V5.91338H30.981V12.9657H28.5286ZM34.3697 12.9657V3.57864H36.8222V12.9657H34.3697ZM41.0938 12.9657L37.2311 3.57864H39.9043L42.3077 9.88484L44.7234 3.57864H47.3966L43.5217 12.9657H41.0938ZM47.8055 12.9657V3.57864H55.1507V5.91338H50.258V7.26127H53.7037V9.43955H50.258V10.643H55.1507V12.9657H47.8055Z" fill="white"/>
<path d="M10.3705 23.2911C9.11569 23.2911 8.03859 22.8552 7.13916 21.9942C6.22862 21.1333 5.77335 20.0871 5.77335 18.8774C5.77335 17.6677 6.22862 16.6215 7.13916 15.7605C8.03859 14.8996 9.11569 14.4637 10.3705 14.4637C11.6363 14.4637 12.7245 14.8996 13.624 15.7605C14.3013 16.4035 14.7233 17.1555 14.8787 17.9946H12.558C12.4469 17.7113 12.2693 17.4497 12.0472 17.2318C11.5919 16.785 11.0367 16.567 10.3705 16.567C9.71532 16.567 9.16011 16.7959 8.70484 17.2427C8.24957 17.6895 8.01638 18.2344 8.01638 18.8774C8.01638 19.5204 8.24957 20.0653 8.70484 20.5121C9.16011 20.9589 9.71532 21.1878 10.3705 21.1878C11.0367 21.1878 11.5919 20.9589 12.0472 20.5121C12.3581 20.2069 12.558 19.8691 12.6579 19.4659H14.9232C14.801 20.4358 14.3791 21.275 13.624 21.9942C12.7245 22.8552 11.6363 23.2911 10.3705 23.2911ZM19.8906 23.2911C18.6358 23.2911 17.5587 22.8552 16.6593 21.9942C15.7488 21.1333 15.2935 20.0871 15.2935 18.8774C15.2935 17.6677 15.7488 16.6215 16.6593 15.7605C17.5587 14.8996 18.6358 14.4637 19.8906 14.4637C21.1565 14.4637 22.2447 14.8996 23.1441 15.7605C24.0435 16.6215 24.4877 17.6677 24.4877 18.8774C24.4877 20.0871 24.0435 21.1333 23.1441 21.9942C22.2447 22.8552 21.1565 23.2911 19.8906 23.2911ZM19.8906 21.1878C20.5568 21.1878 21.1121 20.9589 21.5673 20.5121C22.0226 20.0653 22.2447 19.5204 22.2447 18.8774C22.2447 18.2344 22.0226 17.6786 21.5673 17.2318C21.1121 16.785 20.5568 16.567 19.8906 16.567C19.2355 16.567 18.6802 16.7959 18.225 17.2427C17.7697 17.6895 17.5365 18.2344 17.5365 18.8774C17.5365 19.5204 17.7697 20.0653 18.225 20.5121C18.6802 20.9589 19.2355 21.1878 19.8906 21.1878ZM28.8333 23.1276C27.5785 23.1276 26.6014 22.7789 25.9018 22.0596C25.2023 21.3512 24.858 20.4467 24.858 19.3242V14.6272H27.0789V19.1934C27.0789 19.8037 27.2232 20.2614 27.523 20.5775C27.8228 20.9044 28.2559 21.0679 28.8333 21.0679C29.4107 21.0679 29.8549 20.9044 30.1547 20.5775C30.4545 20.2614 30.61 19.8037 30.61 19.1934V14.6272H32.8197V19.3242C32.8197 20.4358 32.4644 21.3403 31.7648 22.0596C31.0652 22.7789 30.0881 23.1276 28.8333 23.1276ZM33.19 23.1276V14.6272H37.0098C38.0981 14.6272 38.942 14.8996 39.5305 15.4445C40.119 16.0003 40.4077 16.6869 40.4077 17.4824C40.4077 18.3216 40.119 19.0191 39.5305 19.564C39.3417 19.7383 39.1307 19.88 38.8976 19.9999L40.6298 23.1276H38.5311L37.0098 20.3922H35.4109V23.1276H33.19ZM35.4109 18.6485H36.8877C37.7427 18.6485 38.1647 18.2671 38.1647 17.4933C38.1647 17.1664 38.0647 16.9048 37.8538 16.6869C37.6428 16.4689 37.3208 16.3708 36.8877 16.3708H35.4109V18.6485ZM44.6867 23.2911C43.6096 23.2911 42.7324 23.0622 42.0439 22.5936C41.3554 22.125 41.0112 21.4929 41.0112 20.6756V20.5775L41.0001 20.1416H43.1765V20.632C43.1765 20.8172 43.3098 20.9916 43.5652 21.1551C43.8206 21.3185 44.1759 21.4057 44.6423 21.4057C45.0309 21.4057 45.3085 21.3512 45.4862 21.2532C45.6528 21.1551 45.7416 21.0243 45.7416 20.8826C45.7416 20.7083 45.6305 20.5557 45.4196 20.4249C45.1975 20.2941 44.8088 20.1416 44.2647 19.9563C43.9205 19.8364 43.6318 19.7383 43.3986 19.6511C43.1654 19.564 42.8878 19.4332 42.5658 19.2588C42.2438 19.0953 41.9773 18.9101 41.7885 18.7248C41.5997 18.5395 41.4332 18.3107 41.2888 18.0273C41.1445 17.744 41.0779 17.4388 41.0779 17.101C41.0779 16.3055 41.3888 15.6625 42.0217 15.183C42.6546 14.7034 43.4652 14.4637 44.4646 14.4637C45.4973 14.4637 46.3412 14.7143 47.0075 15.2156C47.6737 15.717 48.0068 16.3817 48.0068 17.21V17.744H45.8415V17.2536C45.8415 17.0247 45.7305 16.8068 45.4973 16.6215C45.2641 16.4362 44.931 16.349 44.509 16.349C44.1648 16.349 43.8983 16.4035 43.7206 16.5125C43.543 16.6324 43.4541 16.7632 43.4541 16.9266C43.4541 17.0901 43.5541 17.2209 43.7539 17.3299C43.9538 17.4497 44.3314 17.6023 44.8866 17.7876L45.4529 17.9837L46.0525 18.2235C46.3079 18.3434 46.5189 18.4415 46.6743 18.5395C46.8298 18.6376 47.0075 18.7684 47.2184 18.9319C47.4294 19.0953 47.5849 19.2697 47.707 19.4332C47.8181 19.5967 47.918 19.8037 48.0068 20.0326C48.0846 20.2614 48.129 20.5121 48.129 20.7627C48.129 21.5692 47.807 22.1904 47.174 22.6263C46.5411 23.0731 45.7083 23.2911 44.6867 23.2911ZM48.4993 23.1276V14.6272H55.1507V16.7414H50.7201V17.962H53.8404V19.9345H50.7201V21.0243H55.1507V23.1276H48.4993Z" fill="white"/>
<path d="M11.0105 27.1207H11.348V27.3144H10.787V26.258H11.0105V27.1207ZM12.3629 26.451H11.9637V26.6908H12.3175V26.8816H11.9637V27.1207H12.3629V27.3145H11.7387V26.2581H12.3629V26.451ZM13.5336 27.3144L13.4554 27.0966H13.0032L12.925 27.3144H12.6963L13.0926 26.258H13.366L13.7623 27.3144H13.5336ZM13.0687 26.9131H13.3898L13.2296 26.4649L13.0687 26.9131ZM14.7124 27.3144L14.4323 26.8495H14.3675V27.3144H14.144V26.258H14.5343C14.7779 26.258 14.8807 26.3991 14.8807 26.5739C14.8807 26.7157 14.7988 26.8078 14.6528 26.8385L14.9768 27.3145L14.7124 27.3144ZM14.3675 26.44V26.6923H14.4993C14.6185 26.6923 14.667 26.6425 14.667 26.5665C14.667 26.4912 14.6185 26.44 14.4993 26.44L14.3675 26.44ZM16.0961 26.258H16.3188V27.3144H16.0603L15.5836 26.5592V27.3144H15.3608V26.258H15.6164L16.0961 27.0088V26.258ZM18.1543 27.3144L18.0761 27.0966H17.6239L17.5457 27.3144H17.317L17.7133 26.258H17.9867L18.383 27.3144H18.1543ZM17.6895 26.9131H18.0105L17.8504 26.4649L17.6895 26.9131ZM20.1164 26.258H20.3391V27.3144H20.0806L19.6039 26.5592V27.3144H19.3812V26.258H19.6367L20.1164 27.0088V26.258ZM21.4621 26.451H21.0628V26.6908H21.4167V26.8816H21.0628V27.1207H21.4621V27.3145H20.8379V26.2581H21.4621V26.451ZM22.0874 27.3144L21.8059 26.258H22.0383L22.2483 27.0579L22.489 26.258H22.6774L22.9165 27.0579L23.1288 26.258H23.3605L23.0789 27.3144H22.7914L22.5828 26.6616L22.375 27.3144H22.0874ZM24.7267 27.3291C24.4958 27.3291 24.3155 27.2201 24.2827 27.022L24.5136 26.9701C24.5285 27.0885 24.6172 27.1499 24.7356 27.1499C24.8265 27.1499 24.8988 27.1105 24.898 27.0213C24.8973 26.9218 24.7781 26.8904 24.647 26.8509C24.4891 26.8027 24.32 26.7456 24.32 26.5512C24.32 26.3545 24.4838 26.2434 24.6999 26.2434C24.8891 26.2434 25.0798 26.3187 25.123 26.5212L24.907 26.5738C24.8869 26.4686 24.8146 26.4225 24.7133 26.4225C24.6232 26.4225 24.5464 26.4591 24.5464 26.5461C24.5464 26.6272 24.6522 26.6543 24.7744 26.6901C24.9368 26.7383 25.1289 26.7997 25.1289 27.0103C25.1289 27.2347 24.9375 27.3291 24.7267 27.3291ZM26.1923 27.3144L25.8579 26.8656H25.7789V27.3144H25.5554V26.258H25.7789V26.6733H25.8549L26.1923 26.258H26.465L26.0478 26.7632L26.4776 27.3145L26.1923 27.3144ZM26.8579 27.3144V26.258H27.0814V27.3144H26.8579ZM27.8028 27.1207H28.1403V27.3144H27.5793V26.258H27.8028V27.1207ZM28.7545 27.1207H29.0919V27.3144H28.531V26.258H28.7545V27.1207ZM30.099 27.3144V26.258H30.3225V27.3144H30.099ZM31.5557 26.258H31.7785V27.3144H31.52L31.0432 26.5592V27.3144H30.8205V26.258H31.076L31.5557 27.0088V26.258ZM33.6288 26.258H33.8516V27.3144H33.5931L33.1163 26.5592V27.3144H32.8936V26.258H33.1491L33.6288 27.0088V26.258ZM35.0706 27.3144L34.9924 27.0966H34.5403L34.462 27.3144H34.2334L34.6297 26.258H34.903L35.2993 27.3144H35.0706ZM34.6058 26.9131H34.9268L34.7667 26.4649L34.6058 26.9131ZM36.3053 26.258V26.451H36.0498V27.3144H35.8286V26.451H35.5716V26.258H36.3053ZM36.6945 27.3144V26.258H36.918V27.3144H36.6945ZM38.1006 26.258H38.3382L37.9404 27.3144H37.6946L37.299 26.258H37.5359L37.8183 27.0586L38.1006 26.258ZM39.3442 26.451H38.9449V26.6908H39.2988V26.8816H38.9449V27.1207H39.3442V27.3145H38.72V26.2581H39.3442V26.451ZM40.6344 27.1207H40.9718V27.3144H40.4109V26.258H40.6344V27.1207ZM42.0829 27.3144L42.0047 27.0966H41.5525L41.4743 27.3144H41.2456L41.6419 26.258H41.9153L42.3116 27.3144H42.0829ZM41.6181 26.9131H41.9391L41.779 26.4649L41.6181 26.9131ZM43.4286 26.258H43.6513V27.3144H43.3928L42.9161 26.5592V27.3144H42.6934V26.258H42.9489L43.4286 27.0088V26.258ZM44.6156 27.3291C44.305 27.3291 44.0763 27.1185 44.0763 26.7888C44.0763 26.4547 44.3102 26.2434 44.6268 26.2434C44.8346 26.2434 45.0067 26.3333 45.1005 26.492L44.9046 26.5943C44.848 26.4861 44.7467 26.4342 44.6268 26.4342C44.4405 26.4342 44.3005 26.56 44.3005 26.7837C44.3005 26.9993 44.4316 27.1382 44.635 27.1382C44.7728 27.1382 44.8994 27.071 44.93 26.9167H44.6357V26.7405H45.1415V27.3144H44.9657V27.1682C44.8964 27.2684 44.7802 27.3291 44.6156 27.3291ZM45.9918 27.3291C45.7557 27.3291 45.571 27.2106 45.571 26.9445V26.258H45.7944V26.9145C45.7944 27.0754 45.8816 27.1353 45.9918 27.1353C46.1028 27.1353 46.1907 27.0746 46.1907 26.9145V26.258H46.4142V26.9445C46.4142 27.2106 46.2287 27.3291 45.9918 27.3291ZM47.611 27.3144L47.5327 27.0966H47.0806L47.0024 27.3144H46.7737L47.17 26.258H47.4433L47.8396 27.3144H47.611ZM47.1461 26.9131H47.4671L47.307 26.4649L47.1461 26.9131ZM48.6869 27.3291C48.3763 27.3291 48.1476 27.1185 48.1476 26.7888C48.1476 26.4547 48.3815 26.2434 48.6981 26.2434C48.906 26.2434 49.078 26.3333 49.1719 26.492L48.976 26.5943C48.9194 26.4861 48.8181 26.4342 48.6981 26.4342C48.5119 26.4342 48.3718 26.56 48.3718 26.7837C48.3718 26.9993 48.503 27.1382 48.7063 27.1382C48.8441 27.1382 48.9708 27.071 49.0013 26.9167H48.7071V26.7405H49.2129V27.3144H49.0371V27.1682C48.9678 27.2684 48.8516 27.3291 48.6869 27.3291ZM50.2889 26.451H49.8896V26.6908H50.2435V26.8816H49.8896V27.1207H50.2889V27.3145H49.6647V26.2581H50.2889V26.451Z" fill="white"/>
</svg>
