<svg width="25" height="20" viewBox="0 0 25 20" fill="none" xmlns="http://www.w3.org/2000/svg">
<path d="M20.3832 4.72815H23.2219C23.7439 4.72815 24.1682 5.03677 24.1682 5.41583V14.718C24.1682 15.097 23.7439 15.4056 23.2219 15.4056H20.8546" fill="#8CAAFF"/>
<path d="M23.2186 16.2342H20.8546V14.5737H23.2186C23.2657 14.5737 23.3028 14.567 23.3297 14.5603V5.57014C23.2994 5.56343 23.2624 5.55672 23.2186 5.55672H20.3832V3.89622H23.2219C24.2187 3.89622 25 4.56378 25 5.41583V14.718C25 15.57 24.2153 16.2342 23.2186 16.2342Z" fill="#333333"/>
<path d="M1.66699 1.57489H19.5482C20.0095 1.57489 20.3799 1.94724 20.3799 2.40346V17.7605C20.3799 18.2201 20.0062 18.5891 19.5482 18.5891H1.66699C1.20565 18.5891 0.835228 18.2168 0.835228 17.7605V2.40346C0.83186 1.94724 1.20565 1.57489 1.66699 1.57489Z" fill="#D9D9D9"/>
<path d="M19.5481 19.421H1.66689C0.747575 19.421 0 18.6763 0 17.7605V2.40346C0 1.48767 0.747575 0.742966 1.66689 0.742966H19.5481C20.4674 0.742966 21.215 1.48767 21.215 2.40346V17.7605C21.215 18.6763 20.4674 19.421 19.5481 19.421ZM1.66689 2.40346V17.7605H19.5481V2.40346H1.66689Z" fill="#333333"/>
<path d="M14.8774 10.404L8.51964 14.926C8.33106 15.0601 8.07177 15.0165 7.93707 14.8287C7.88656 14.7582 7.85962 14.6744 7.85962 14.5871V5.54331C7.85962 5.3152 8.04483 5.12735 8.27718 5.12735C8.36474 5.12735 8.44892 5.15419 8.51964 5.2045L14.8774 9.72642C15.066 9.8606 15.1098 10.1189 14.9751 10.3068C14.9481 10.3437 14.9144 10.3772 14.8774 10.404Z" fill="#8CAAFF"/>
<path d="M8.28053 15.8317C8.20981 15.8317 8.14246 15.825 8.07174 15.8149C7.74173 15.7612 7.45213 15.5801 7.26019 15.3084C7.10865 15.097 7.02783 14.8455 7.02783 14.5838V5.54332C7.02783 4.85563 7.58683 4.29878 8.27716 4.29878C8.53982 4.29878 8.78901 4.37929 9.00453 4.53025L15.3623 9.05216C15.6351 9.24673 15.8135 9.53186 15.8674 9.86061C15.9213 10.1894 15.8472 10.5181 15.6519 10.7898C15.5711 10.9039 15.4734 11.0012 15.3589 11.0817L9.00116 15.6036C8.78901 15.7545 8.53645 15.8317 8.28053 15.8317ZM8.69136 6.35176V13.7821L13.9143 10.0686L8.69136 6.35176Z" fill="#333333"/>
</svg>
